<?xml version="1.0" encoding="utf-8"?>
<!-- Generator: Adobe Illustrator 18.0.0, SVG Export Plug-In . SVG Version: 6.00 Build 0)  -->
<!DOCTYPE svg PUBLIC "-//W3C//DTD SVG 1.1//EN" "http://www.w3.org/Graphics/SVG/1.1/DTD/svg11.dtd">
<svg version="1.1" id="Слой_1" xmlns="http://www.w3.org/2000/svg" xmlns:xlink="http://www.w3.org/1999/xlink" x="0px" y="0px"
	 viewBox="0 0 40 49.1" enable-background="new 0 0 40 49.1" xml:space="preserve">
<rect x="-103.3" fill="#0D2640" width="76" height="74"/>
<path fill-rule="evenodd" clip-rule="evenodd" fill="#FFFFFF" d="M33.9,17c0-5.1,0-11.9,0-9.4C33.9,2.2,38.2,0,40,0
	c0,5.6,0,12.8,0,9.5C40,14.8,35.7,17,33.9,17z M18.2,38.8h-6.8V16.4c0-3.3,1.9-6,5.5-6h12.7v6.5H18.2V38.8z M6.8,42.9H23V20.6h6.6
	v22.3h4.8v6.1H5.7c-3.2,0-5.7-2.6-5.7-5.7c0,0,0,0,0-0.1l0,0l0-22.6h6.8V42.9z"/>
<rect x="106" fill="#0D2640" width="76" height="74"/>
<path fill="#FFFFFF" d="M162.8,24.4c0-3.5,0-8,0-11.5s6-9.1,6-6.4c0,2.8,0,10.4,0,11.5C168.8,21.5,162.8,27.9,162.8,24.4z
	 M128.1,64.9L128.1,64.9c-3.5-0.1-6.3-2.9-6.5-6.5l0,0V32.2l6.6,0v26.4l20.4,0V32.2h6.4v26.4h4.7V65L128.1,64.9z M141.8,26.3v27.1
	h-6.5v-27c0-4,3.1-6.7,6.4-6.7h15.6v6.6L141.8,26.3z"/>
</svg>
